<svg width="380" height="50" viewBox="0 0 380 50" fill="none" xmlns="http://www.w3.org/2000/svg">
<path d="M0.511719 39.0734L13.941 37.8102C14.495 39.4058 15.2706 40.547 16.2678 41.234C17.265 41.921 18.5947 42.2645 20.2567 42.2645C22.0739 42.2645 23.4811 41.8767 24.4783 41.101C25.2539 40.5249 25.6417 39.8047 25.6417 38.9404C25.6417 37.9653 25.132 37.2119 24.1126 36.68C23.3813 36.3033 21.4423 35.8379 18.2955 35.2839C13.5975 34.464 10.3288 33.7105 8.48949 33.0236C6.67233 32.3144 5.13218 31.1288 3.86903 29.4668C2.62804 27.8048 2.00755 25.91 2.00755 23.7826C2.00755 21.4558 2.68345 19.4503 4.03524 17.7661C5.38702 16.0819 7.24851 14.8298 9.61968 14.0099C11.9908 13.1678 15.1709 12.7467 19.1598 12.7467C23.3703 12.7467 26.4727 13.068 28.4672 13.7107C30.4838 14.3533 32.1569 15.3506 33.4865 16.7024C34.8383 18.0541 35.9574 19.8824 36.8438 22.1871L24.0129 23.4502C23.6805 22.32 23.1265 21.489 22.3509 20.9572C21.2872 20.248 20.0019 19.8935 18.495 19.8935C16.9659 19.8935 15.8468 20.1705 15.1376 20.7245C14.4507 21.2563 14.1072 21.9101 14.1072 22.6857C14.1072 23.5499 14.5504 24.2037 15.4368 24.6469C16.3232 25.0901 18.2512 25.489 21.2207 25.8436C25.7193 26.3532 29.0655 27.0624 31.2594 27.971C33.4533 28.8795 35.1264 30.1759 36.2787 31.8601C37.4532 33.5443 38.0405 35.3947 38.0405 37.4113C38.0405 39.4501 37.42 41.4335 36.179 43.3614C34.9602 45.2894 33.0211 46.8295 30.3619 47.9819C27.7248 49.1121 24.1237 49.6772 19.5587 49.6772C13.11 49.6772 8.51165 48.7575 5.76375 46.9182C3.03801 45.0789 1.28734 42.4639 0.511719 39.0734Z" fill="black"/>
<path d="M60.8436 0.115234V13.5445H68.2896V23.417H60.8436V35.9487C60.8436 37.4556 60.9877 38.4529 61.2758 38.9404C61.719 39.6939 62.4946 40.0706 63.6026 40.0706C64.5998 40.0706 65.9959 39.7825 67.7909 39.2063L68.7882 48.547C65.4419 49.2783 62.3173 49.6439 59.4143 49.6439C56.0459 49.6439 53.5639 49.2118 51.9684 48.3475C50.3728 47.4833 49.1872 46.1758 48.4116 44.4251C47.6581 42.6523 47.2814 39.7936 47.2814 35.849V23.417H42.2953V13.5445H47.2814V7.06255L60.8436 0.115234Z" fill="black"/>
<path d="M73.1095 31.295C73.1095 25.91 74.9266 21.4779 78.5609 17.9987C82.1953 14.4974 87.1038 12.7467 93.2866 12.7467C100.356 12.7467 105.696 14.7966 109.309 18.8962C112.212 22.1982 113.663 26.2646 113.663 31.0956C113.663 36.5249 111.857 40.9792 108.245 44.4584C104.655 47.9154 99.6799 49.6439 93.3198 49.6439C87.6467 49.6439 83.0595 48.2035 79.5582 45.3226C75.259 41.7548 73.1095 37.0789 73.1095 31.295ZM86.6717 31.2618C86.6717 34.4086 87.3032 36.7354 88.5664 38.2423C89.8517 39.7493 91.4583 40.5027 93.3863 40.5027C95.3364 40.5027 96.932 39.7603 98.173 38.2756C99.4361 36.7908 100.068 34.4086 100.068 31.1288C100.068 28.0707 99.4361 25.7992 98.173 24.3145C96.9098 22.8076 95.3475 22.0541 93.486 22.0541C91.5137 22.0541 89.8849 22.8186 88.5996 24.3477C87.3143 25.8546 86.6717 28.1593 86.6717 31.2618Z" fill="black"/>
<path d="M146.505 35.0512L159.369 36.5138C158.66 39.1952 157.497 41.5221 155.879 43.4944C154.261 45.4445 152.189 46.9625 149.663 48.0484C147.159 49.1342 143.968 49.6772 140.09 49.6772C136.344 49.6772 133.22 49.3337 130.716 48.6467C128.234 47.9376 126.095 46.8074 124.3 45.2561C122.505 43.6827 121.098 41.8434 120.079 39.7382C119.059 37.6329 118.55 34.8407 118.55 31.3615C118.55 27.7272 119.17 24.7023 120.411 22.2868C121.32 20.514 122.561 18.9295 124.134 17.5334C125.707 16.1151 127.325 15.0625 128.987 14.3755C131.624 13.2896 135.004 12.7467 139.126 12.7467C144.887 12.7467 149.275 13.7772 152.289 15.8381C155.325 17.899 157.452 20.9128 158.671 24.8796L145.94 26.5749C145.541 25.0679 144.81 23.9378 143.746 23.1843C142.704 22.4087 141.297 22.0209 139.524 22.0209C137.286 22.0209 135.469 22.8297 134.073 24.4474C132.699 26.043 132.012 28.4696 132.012 31.7272C132.012 34.6302 132.699 36.8352 134.073 38.3421C135.447 39.849 137.198 40.6024 139.325 40.6024C141.098 40.6024 142.583 40.1481 143.779 39.2396C144.998 38.331 145.907 36.9349 146.505 35.0512Z" fill="black"/>
<path d="M165.585 0.115234H179.413V25.2452L189.518 13.5445H206.172L193.507 25.91L206.903 48.8461H191.646L184.499 34.6856L179.413 39.6717V48.8461H165.585V0.115234Z" fill="black"/>
<circle cx="222.278" cy="8.07693" r="8.07693" fill="#F23343"/>
<circle cx="222.278" cy="40.7693" r="8.07693" fill="#2175EB"/>
<mask id="mask0_241_3177" style="mask-type:alpha" maskUnits="userSpaceOnUse" x="237" y="0" width="142" height="50">
<path d="M237.491 0.115234H253.247L264.217 35.1842L275.02 0.115234H290.311L272.228 48.8461H255.907L237.491 0.115234Z" fill="black"/>
<path d="M331.596 48.8461H318.964V43.1287C317.081 45.4777 315.175 47.1509 313.247 48.1481C311.341 49.1453 308.992 49.6439 306.2 49.6439C302.477 49.6439 299.552 48.5359 297.424 46.3198C295.319 44.0816 294.266 40.6468 294.266 36.0152V13.5445H307.862V32.9571C307.862 35.1731 308.272 36.7465 309.092 37.6773C309.912 38.608 311.064 39.0734 312.549 39.0734C314.166 39.0734 315.485 38.4529 316.504 37.2119C317.546 35.9709 318.067 33.7438 318.067 30.5305V13.5445H331.596V48.8461Z" fill="black"/>
<path d="M378.997 34.5526H351.873C352.116 36.7244 352.704 38.3421 353.634 39.4058C354.942 40.9348 356.648 41.6994 358.753 41.6994C360.083 41.6994 361.346 41.367 362.543 40.7022C363.274 40.2811 364.061 39.5387 364.903 38.475L378.232 39.7049C376.194 43.2506 373.734 45.7991 370.853 47.3503C367.972 48.8794 363.839 49.6439 358.454 49.6439C353.778 49.6439 350.1 48.9902 347.418 47.6827C344.737 46.3531 342.51 44.2589 340.737 41.4002C338.986 38.5194 338.111 35.1399 338.111 31.2618C338.111 25.7438 339.873 21.2785 343.396 17.8658C346.942 14.4531 351.828 12.7467 358.055 12.7467C363.108 12.7467 367.097 13.5112 370.022 15.0403C372.947 16.5694 375.174 18.7854 376.703 21.6885C378.232 24.5915 378.997 28.3699 378.997 33.0236V34.5526ZM365.235 28.0707C364.969 25.4557 364.26 23.5832 363.108 22.453C361.978 21.3228 360.482 20.7577 358.62 20.7577C356.471 20.7577 354.753 21.6109 353.468 23.3173C352.648 24.381 352.127 25.9654 351.906 28.0707H365.235Z" fill="black"/>
</mask>
<g mask="url(#mask0_241_3177)">
<path d="M236.316 -0.961426H254.393L274.97 49.6156C270.291 51.0258 260.855 53.8848 260.547 54.0386C260.24 54.1925 249.009 45.2566 243.432 40.7694L236.316 -0.961426Z" fill="#2175EB"/>
<rect x="292.663" y="1.15381" width="89.2309" height="52.3078" fill="black"/>
<path d="M258.816 52.6923L274.97 0.192236L274.009 -2.69238L295.163 -2.11546L274.393 52.1154L258.816 52.6923Z" fill="#F23343"/>
</g>
</svg>
